<svg width="32" height="32" viewBox="0 0 32 32" fill="none" xmlns="http://www.w3.org/2000/svg">
<path fill-rule="evenodd" clip-rule="evenodd" d="M29.3333 16C29.3333 23.3639 23.3637 29.3334 16 29.3334C8.6362 29.3334 2.66663 23.3639 2.66663 16C2.66663 8.6363 8.6362 2.66675 16 2.66675C23.3637 2.66675 29.3333 8.6363 29.3333 16Z" fill="#E60000"/>
<path fill-rule="evenodd" clip-rule="evenodd" d="M16.1518 23.3332C12.4914 23.3453 8.68331 20.2333 8.66668 15.2365C8.65568 11.932 10.4454 8.75127 12.7331 6.86426C14.9647 5.02369 18.0216 3.84255 20.7942 3.83328C21.1511 3.83216 21.5242 3.86184 21.7527 3.93871C19.3286 4.43953 17.3992 6.68683 17.4078 9.23645C17.4081 9.32063 17.4156 9.41079 17.424 9.45264C21.4805 10.4369 23.322 12.8749 23.3333 16.2486C23.3444 19.622 20.6707 23.3182 16.1518 23.3332Z" fill="white"/>
</svg>
